<svg width="184" height="40" viewBox="0 0 184 40" fill="none" xmlns="http://www.w3.org/2000/svg">
<path d="M6.96023 31V7.72727H11.8807V26.9432H21.858V31H6.96023ZM30.0028 31.3295C28.8892 31.3295 27.8968 31.1364 27.0256 30.75C26.1544 30.3561 25.465 29.7765 24.9574 29.0114C24.4574 28.2386 24.2074 27.2765 24.2074 26.125C24.2074 25.1553 24.3854 24.3409 24.7415 23.6818C25.0975 23.0227 25.5824 22.4924 26.196 22.0909C26.8097 21.6894 27.5066 21.3864 28.2869 21.1818C29.0748 20.9773 29.9006 20.8333 30.7642 20.75C31.7794 20.6439 32.5975 20.5455 33.2188 20.4545C33.84 20.3561 34.2907 20.2121 34.571 20.0227C34.8513 19.8333 34.9915 19.553 34.9915 19.1818V19.1136C34.9915 18.3939 34.7642 17.8371 34.3097 17.4432C33.8627 17.0492 33.2263 16.8523 32.4006 16.8523C31.5294 16.8523 30.8362 17.0455 30.321 17.4318C29.8059 17.8106 29.465 18.2879 29.2983 18.8636L24.821 18.5C25.0483 17.4394 25.4953 16.5227 26.1619 15.75C26.8286 14.9697 27.6884 14.3712 28.7415 13.9545C29.8021 13.5303 31.0294 13.3182 32.4233 13.3182C33.393 13.3182 34.321 13.4318 35.2074 13.6591C36.1013 13.8864 36.893 14.2386 37.5824 14.7159C38.2794 15.1932 38.8286 15.8068 39.2301 16.5568C39.6316 17.2992 39.8324 18.1894 39.8324 19.2273V31H35.2415V28.5795H35.1051C34.8248 29.125 34.4498 29.6061 33.9801 30.0227C33.5104 30.4318 32.946 30.7538 32.2869 30.9886C31.6278 31.2159 30.8665 31.3295 30.0028 31.3295ZM31.3892 27.9886C32.1013 27.9886 32.7301 27.8485 33.2756 27.5682C33.821 27.2803 34.2491 26.8939 34.5597 26.4091C34.8703 25.9242 35.0256 25.375 35.0256 24.7614V22.9091C34.8741 23.0076 34.6657 23.0985 34.4006 23.1818C34.143 23.2576 33.8513 23.3295 33.5256 23.3977C33.1998 23.4583 32.8741 23.5152 32.5483 23.5682C32.2225 23.6136 31.9271 23.6553 31.6619 23.6932C31.0938 23.7765 30.5975 23.9091 30.1733 24.0909C29.7491 24.2727 29.4195 24.5189 29.1847 24.8295C28.9498 25.1326 28.8324 25.5114 28.8324 25.9659C28.8324 26.625 29.071 27.1288 29.5483 27.4773C30.0331 27.8182 30.6468 27.9886 31.3892 27.9886ZM43.4972 31V28.1136L52.0426 17.5341V17.4091H43.7926V13.5455H57.8722V16.6932L49.8494 27.0114V27.1364H58.1676V31H43.4972ZM73.0625 23.5682V13.5455H77.9034V31H73.2557V27.8295H73.0739C72.6799 28.8523 72.0246 29.6742 71.108 30.2955C70.1989 30.9167 69.089 31.2273 67.7784 31.2273C66.6117 31.2273 65.5852 30.9621 64.6989 30.4318C63.8125 29.9015 63.1193 29.1477 62.6193 28.1705C62.1269 27.1932 61.8769 26.0227 61.8693 24.6591V13.5455H66.7102V23.7955C66.7178 24.8258 66.9943 25.6402 67.5398 26.2386C68.0852 26.8371 68.8163 27.1364 69.733 27.1364C70.3163 27.1364 70.8617 27.0038 71.3693 26.7386C71.8769 26.4659 72.286 26.0644 72.5966 25.5341C72.9148 25.0038 73.0701 24.3485 73.0625 23.5682ZM81.7756 31V13.5455H86.4688V16.5909H86.6506C86.9688 15.5076 87.5028 14.6894 88.2528 14.1364C89.0028 13.5758 89.8665 13.2955 90.8438 13.2955C91.0862 13.2955 91.3475 13.3106 91.6278 13.3409C91.9081 13.3712 92.1544 13.4129 92.3665 13.4659V17.7614C92.1392 17.6932 91.8248 17.6326 91.4233 17.5795C91.0218 17.5265 90.6544 17.5 90.321 17.5C89.6089 17.5 88.9725 17.6553 88.4119 17.9659C87.8589 18.2689 87.4195 18.6932 87.0938 19.2386C86.7756 19.7841 86.6165 20.4129 86.6165 21.125V31H81.7756ZM102.011 31.3409C100.216 31.3409 98.6705 30.9773 97.375 30.25C96.0871 29.5152 95.0947 28.4773 94.3977 27.1364C93.7008 25.7879 93.3523 24.1932 93.3523 22.3523C93.3523 20.5568 93.7008 18.9811 94.3977 17.625C95.0947 16.2689 96.0758 15.2121 97.3409 14.4545C98.6136 13.697 100.106 13.3182 101.818 13.3182C102.97 13.3182 104.042 13.5038 105.034 13.875C106.034 14.2386 106.905 14.7879 107.648 15.5227C108.398 16.2576 108.981 17.1818 109.398 18.2955C109.814 19.4015 110.023 20.697 110.023 22.1818V23.5114H95.2841V20.5114H105.466C105.466 19.8144 105.314 19.197 105.011 18.6591C104.708 18.1212 104.288 17.7008 103.75 17.3977C103.22 17.0871 102.602 16.9318 101.898 16.9318C101.163 16.9318 100.511 17.1023 99.9432 17.4432C99.3826 17.7765 98.9432 18.2273 98.625 18.7955C98.3068 19.3561 98.1439 19.9811 98.1364 20.6705V23.5227C98.1364 24.3864 98.2955 25.1326 98.6136 25.7614C98.9394 26.3902 99.3977 26.875 99.9886 27.2159C100.58 27.5568 101.28 27.7273 102.091 27.7273C102.629 27.7273 103.121 27.6515 103.568 27.5C104.015 27.3485 104.398 27.1212 104.716 26.8182C105.034 26.5152 105.277 26.1439 105.443 25.7045L109.92 26C109.693 27.0758 109.227 28.0152 108.523 28.8182C107.826 29.6136 106.924 30.2348 105.818 30.6818C104.72 31.1212 103.451 31.3409 102.011 31.3409ZM115.852 7.72727L121.477 25.4091H121.693L127.33 7.72727H132.784L124.761 31H118.42L110.386 7.72727H115.852ZM141.412 31.3409C139.647 31.3409 138.12 30.9659 136.832 30.2159C135.552 29.4583 134.563 28.4053 133.866 27.0568C133.17 25.7008 132.821 24.1288 132.821 22.3409C132.821 20.5379 133.17 18.9621 133.866 17.6136C134.563 16.2576 135.552 15.2045 136.832 14.4545C138.12 13.697 139.647 13.3182 141.412 13.3182C143.177 13.3182 144.7 13.697 145.98 14.4545C147.268 15.2045 148.26 16.2576 148.957 17.6136C149.654 18.9621 150.003 20.5379 150.003 22.3409C150.003 24.1288 149.654 25.7008 148.957 27.0568C148.26 28.4053 147.268 29.4583 145.98 30.2159C144.7 30.9659 143.177 31.3409 141.412 31.3409ZM141.435 27.5909C142.238 27.5909 142.908 27.3636 143.446 26.9091C143.984 26.447 144.389 25.8182 144.662 25.0227C144.942 24.2273 145.082 23.322 145.082 22.3068C145.082 21.2917 144.942 20.3864 144.662 19.5909C144.389 18.7955 143.984 18.1667 143.446 17.7045C142.908 17.2424 142.238 17.0114 141.435 17.0114C140.624 17.0114 139.942 17.2424 139.389 17.7045C138.844 18.1667 138.431 18.7955 138.151 19.5909C137.878 20.3864 137.741 21.2917 137.741 22.3068C137.741 23.322 137.878 24.2273 138.151 25.0227C138.431 25.8182 138.844 26.447 139.389 26.9091C139.942 27.3636 140.624 27.5909 141.435 27.5909ZM157.991 7.72727V31H153.151V7.72727H157.991ZM169.824 31.3409C168.028 31.3409 166.483 30.9773 165.188 30.25C163.9 29.5152 162.907 28.4773 162.21 27.1364C161.513 25.7879 161.165 24.1932 161.165 22.3523C161.165 20.5568 161.513 18.9811 162.21 17.625C162.907 16.2689 163.888 15.2121 165.153 14.4545C166.426 13.697 167.919 13.3182 169.631 13.3182C170.782 13.3182 171.854 13.5038 172.847 13.875C173.847 14.2386 174.718 14.7879 175.46 15.5227C176.21 16.2576 176.794 17.1818 177.21 18.2955C177.627 19.4015 177.835 20.697 177.835 22.1818V23.5114H163.097V20.5114H173.278C173.278 19.8144 173.127 19.197 172.824 18.6591C172.521 18.1212 172.1 17.7008 171.562 17.3977C171.032 17.0871 170.415 16.9318 169.71 16.9318C168.975 16.9318 168.324 17.1023 167.756 17.4432C167.195 17.7765 166.756 18.2273 166.438 18.7955C166.119 19.3561 165.956 19.9811 165.949 20.6705V23.5227C165.949 24.3864 166.108 25.1326 166.426 25.7614C166.752 26.3902 167.21 26.875 167.801 27.2159C168.392 27.5568 169.093 27.7273 169.903 27.7273C170.441 27.7273 170.934 27.6515 171.381 27.5C171.828 27.3485 172.21 27.1212 172.528 26.8182C172.847 26.5152 173.089 26.1439 173.256 25.7045L177.733 26C177.506 27.0758 177.04 28.0152 176.335 28.8182C175.638 29.6136 174.737 30.2348 173.631 30.6818C172.532 31.1212 171.263 31.3409 169.824 31.3409Z" fill="white"/>
</svg>
