<svg width="69" height="65" viewBox="0 0 69 65" fill="none" xmlns="http://www.w3.org/2000/svg">
<path d="M34.8018 30.4083C34.8018 30.4083 38.5011 33.6454 39.8616 33.4847C41.0994 33.3385 43.5046 28.2632 43.5046 28.2632L46.0143 30.5704C46.0143 30.5704 41.2722 35.8188 39.619 35.8323C38.2525 35.8434 34.4379 31.2988 34.4379 31.2988C34.4379 31.2988 32.5617 33.2475 31.8474 33.2822C31.1824 33.3146 26.2614 32.2297 25.9376 31.0559C25.7823 30.4932 26.8281 28.8296 26.8281 28.8296C26.8281 28.8296 26.381 30.5576 26.6256 30.9343C27.0791 31.6327 29.8637 31.9464 29.8637 31.9464C29.8637 31.9464 27.8021 30.7291 27.5969 30.0842C27.3911 29.4374 28.4469 27.6554 28.4469 27.6554C28.4469 27.6554 27.9766 29.495 28.4065 29.8817C28.8111 30.2459 30.5112 31.0556 30.5112 31.0556C30.5112 31.0556 28.5278 29.2342 29.742 27.6958C30.3057 26.9819 31.685 26.765 31.685 26.765C31.685 26.765 29.3812 28.3404 30.1874 29.1938C30.8754 29.9225 32.6567 30.8938 32.6567 30.8938C32.6567 30.8938 33.4956 30.5333 33.7496 30.3676C34.3685 29.964 35.7947 28.6214 35.4901 27.9795C35.2772 27.5308 33.4259 27.9391 33.4259 27.9391C33.4259 27.9391 33.8713 27.0891 36.2189 27.0486C37.3081 27.0301 34.8018 30.4083 34.8018 30.4083Z" fill="#F1F1F1"/>
<path d="M25.7146 23.3453C24.9858 23.9524 24.9858 26.7454 24.9858 26.7454C24.9858 26.7454 23.5287 23.7095 24.0954 23.6286C23.4286 24.0286 23.2858 26.5429 23.2858 26.5429C23.2858 26.5429 22.0715 24.3975 22.3549 23.2641L25.7146 23.3453Z" fill="#F1F1F1"/>
<path d="M19.9871 20.8963C22.962 14.0758 26.218 14.6583 28.6899 13.246C30.1066 12.4364 29.297 10.5746 33.3851 8.7933C34.9629 8.106 39.5379 5.95986 44.6987 8.93481C67.6442 22.1621 55.9978 45.1221 39.9627 46.5385C28.5076 47.5505 19.8048 34.4358 15.1904 35.0834C11.4658 35.6063 13.1673 42.9668 21.8287 45.3647C36.1576 49.3315 29.1552 57.3864 29.1552 57.3864C29.1552 57.3864 32.4172 49.9773 21.7882 47.3885C7.66141 43.9483 8.14724 33.5049 13.0045 31.6836C22.4358 28.1467 31.017 44.677 43.4033 35.7313C49.2329 31.5209 41.0166 25.7172 38.1006 24.9642C34.2729 23.9757 29.3169 23.4262 24.0145 24.0333C22.9176 24.1589 19.5454 21.9084 19.9871 20.8963Z" fill="#E0E0E0"/>
<path d="M35.8249 7.9129C36.0035 6.08851 38.5829 3.9646 42.7714 4.98714L41.0973 7.50152L43.61 5.53193C47.3164 10.1065 44.239 12.1455 42.6016 12.7978C40.1917 13.757 35.6218 9.99132 35.8249 7.9129Z" fill="#F1F1F1"/>
<path d="M24.3468 24.0382C31.5416 22.0852 34.3441 24.9873 36.785 23.2842C40.266 20.8554 45.9329 21.3413 45.9329 21.3413C45.9329 21.3413 41.4115 19.8558 41.521 19.8032C43.8686 18.6699 46.7829 18.9532 46.7829 18.9532L42.0469 17.7794C44.1516 17.1319 47.2684 17.5769 47.2684 17.5769C47.2684 17.5769 42.4553 16.4253 42.8565 16.3222C44.2733 15.958 47.8759 16.4435 47.8759 16.4435C46.9046 15.4722 43.3424 15.3102 43.3424 15.3102C44.8399 14.703 48.0376 14.703 48.0376 14.703L43.747 14.0959C43.747 14.0959 47.389 12.8817 48.3209 12.8817C48.483 12.8817 44.7183 11.8292 44.7183 11.8292C46.9851 10.8578 48.1589 11.1816 48.1589 11.1816L45.0303 8.94046C43.9673 8.31952 40.5689 7.11742 39.2131 6.89101C37.5154 6.60766 36.2978 6.24413 34.7201 6.93144C30.6319 8.71237 28.1223 11.91 26.7056 12.7196C24.234 14.132 22.4436 14.3237 19.4686 21.1442C19.028 22.1562 23.2498 24.1639 24.3468 24.0382Z" fill="#F1F1F1"/>
<path d="M28.1941 19.5341C27.5297 19.4074 25.8869 18.8053 26.4536 17.2269C27.03 15.6208 30.137 15.7698 30.5012 17.5507C30.9146 19.5732 29.0438 19.6958 28.1941 19.5341Z" fill="#AA0A0A"/>
<path d="M31.8977 13.5232C30.0763 15.547 25.907 15.26 25.907 17.2067C25.907 17.6925 26.8439 16.3037 28.0525 16.1137C30.8856 15.6683 31.8977 13.5232 31.8977 13.5232Z" fill="#233343"/>
<path d="M28.4104 17.4284C27.8343 17.4611 28.0068 18.2949 28.3808 18.2949C29.0422 18.2949 29.0129 17.394 28.4104 17.4284Z" fill="#233343"/>
<path d="M19.6225 21.9892C19.2337 21.5808 19.5073 19.7871 20.2297 19.5199C20.8789 19.28 21.9944 20.0442 21.9702 20.6533C21.9368 21.4942 20.4321 22.8392 19.6225 21.9892Z" fill="#233343"/>
</svg>
