<svg width="51" height="48" viewBox="0 0 51 48" fill="none" xmlns="http://www.w3.org/2000/svg">
<path d="M25.1178 0C20.15 0 15.2937 1.40758 11.1631 4.04473C7.03251 6.68188 3.8131 10.4302 1.91199 14.8156C0.0108832 19.201 -0.486533 24.0266 0.482643 28.6822C1.45182 33.3377 3.84406 37.6141 7.35684 40.9706C10.8696 44.327 15.3452 46.6128 20.2176 47.5388C25.0899 48.4649 30.1403 47.9896 34.73 46.1731C39.3196 44.3566 43.2425 41.2805 46.0025 37.3337C48.7625 33.3869 50.2356 28.7467 50.2356 24C50.2356 20.8483 49.5859 17.7274 48.3236 14.8156C47.0613 11.9038 45.2112 9.25804 42.8788 7.02944C40.5464 4.80083 37.7774 3.033 34.73 1.82689C31.6825 0.620778 28.4163 0 25.1178 0ZM33.1053 36.3648C33.0115 36.589 32.8687 36.7915 32.6863 36.9585C32.5038 37.1256 32.2861 37.2535 32.0477 37.3335C31.8093 37.4135 31.5557 37.4439 31.3041 37.4225C31.0524 37.4011 30.8084 37.3285 30.5885 37.2096L23.769 32.1456L19.3935 36.0048C19.2919 36.0764 19.1731 36.1226 19.048 36.1389C18.923 36.1553 18.7956 36.1413 18.6776 36.0984L19.5165 28.9248L19.5417 28.9464L19.5592 28.8048C19.5592 28.8048 31.8293 18.1296 32.3291 17.676C32.8365 17.2224 32.6682 17.124 32.6682 17.124C32.6984 16.572 31.7615 17.124 31.7615 17.124L15.5027 27.1176L8.73347 24.9144C8.73347 24.9144 7.69359 24.5592 7.59563 23.7744C7.49265 22.9968 8.76612 22.5744 8.76612 22.5744L35.6849 12.3552C35.6849 12.3552 37.8977 11.4144 37.8977 12.9744L33.1053 36.3648Z" fill="white"/>
</svg>
