<svg width="48" height="47" viewBox="0 0 48 47" fill="none" xmlns="http://www.w3.org/2000/svg">
<path d="M47.5938 41.7778V5.22222C47.5938 2.35 45.2248 0 42.3338 0H5.63226C2.61533 0 0.372314 2.22728 0.372314 5.22222V41.7778C0.372314 44.7753 2.61533 47 5.63226 47H42.3338C43.726 46.9979 45.0607 46.4475 46.0463 45.469C47.0319 44.4904 47.5882 43.1634 47.5938 41.7778ZM37.5828 27.6961C37.5828 27.6961 40.5525 30.6127 41.2845 31.9652C41.3055 31.9939 41.3133 32.0201 41.3212 32.0305C41.6176 32.5266 41.6937 32.9183 41.5442 33.2055C41.2976 33.6833 40.4581 33.9236 40.1721 33.9444H34.9279C34.5607 33.9444 33.7999 33.8504 32.8764 33.2159C32.1681 32.7251 31.4677 31.913 30.7856 31.1218C29.7677 29.9468 28.8862 28.9285 27.9995 28.9285C27.887 28.9282 27.7753 28.9468 27.6689 28.9833C26.9947 29.1974 26.1395 30.1505 26.1395 32.6963C26.1395 33.4927 25.5099 33.9471 25.0639 33.9471H22.6608C21.8423 33.9471 17.5793 33.6624 13.8042 29.6962C9.17125 24.8395 5.01051 15.0974 4.97378 15.0113C4.71144 14.382 5.25449 14.0399 5.84476 14.0399H11.1441C11.855 14.0399 12.0832 14.4682 12.2459 14.852C12.4295 15.2881 13.1221 17.0479 14.2554 19.0272C16.0997 22.2467 17.2356 23.5574 18.1407 23.5574C18.3099 23.5565 18.4761 23.5124 18.6234 23.4295C19.8066 22.7793 19.5862 18.5807 19.5337 17.7138C19.5337 17.5493 19.5311 15.8364 18.9277 15.0139C18.4922 14.4186 17.7551 14.1914 17.3091 14.1052C17.4909 13.8558 17.7302 13.6534 18.0069 13.5151C18.8175 13.113 20.2788 13.0556 21.7322 13.0556H22.5402C24.1168 13.0764 24.5261 13.1783 25.0954 13.3219C26.2471 13.5961 26.2707 14.3402 26.1684 16.873C26.1395 17.5937 26.108 18.4109 26.108 19.3692C26.108 19.5755 26.1001 19.8027 26.1001 20.0377C26.0634 21.3328 26.0214 22.7976 26.9396 23.3982C27.0585 23.4722 27.1956 23.5119 27.3358 23.5131C27.6558 23.5131 28.6134 23.5131 31.2079 19.082C32.3491 17.1263 33.228 14.8181 33.2883 14.6457C33.38 14.4594 33.5127 14.2961 33.6766 14.1679C33.811 14.0984 33.9606 14.0634 34.112 14.0661H40.3427C41.0247 14.0661 41.4865 14.1679 41.573 14.4264C41.7226 14.8416 41.5442 16.1079 38.6978 19.9358L37.4307 21.6069C34.8492 24.9701 34.8492 25.1424 37.5828 27.6961Z" fill="white"/>
</svg>
